<svg xmlns="http://www.w3.org/2000/svg" width="18.835" height="17.656" viewBox="0 0 18.835 17.656"><defs><style>.a{fill:#fff;}</style></defs><g transform="translate(0 -16.013)"><path class="a" d="M18.663,24.13l-7.32-7.32a2.726,2.726,0,0,0-3.85,0L.173,24.13a.589.589,0,1,0,.832.832l.467-.467v7.482A1.692,1.692,0,0,0,3.164,33.67H6.107a.368.368,0,0,0,.368-.368V27.858a1.839,1.839,0,0,1,1.839-1.839h2.207a1.839,1.839,0,0,1,1.839,1.839V33.3a.368.368,0,0,0,.368.368h2.943a1.692,1.692,0,0,0,1.692-1.692V24.5l.467.467a.589.589,0,1,0,.832-.832Z"/></g></svg>