<svg xmlns="http://www.w3.org/2000/svg" width="25" height="25" viewBox="0 0 25 25"><defs><style>.a{fill:#007ec3;}</style></defs><path class="a" d="M23.535,14.27V2.246a.732.732,0,0,0-.732-.732H19.092V.732a.732.732,0,0,0-1.465,0v.781H14.7V.732a.732.732,0,0,0-1.465,0v.781H10.3V.732a.732.732,0,1,0-1.465,0v.781H5.908V.732a.732.732,0,1,0-1.465,0v.781H.732A.732.732,0,0,0,0,2.246V21.338a.732.732,0,0,0,.732.732h12.2a6.589,6.589,0,1,0,10.605-7.8ZM4.443,2.979v.732a.732.732,0,1,0,1.465,0V2.979h2.93v.732a.732.732,0,1,0,1.465,0V2.979h2.93v.732a.732.732,0,1,0,1.465,0V2.979h2.93v.732a.732.732,0,0,0,1.465,0V2.979H22.07v2.93H1.465V2.979ZM1.465,20.605V7.373H22.07V12.93a6.584,6.584,0,0,0-9.192,1.895.728.728,0,0,0-.329-.079H11.084a.732.732,0,1,0,0,1.465h1.11a6.537,6.537,0,0,0-.336,1.465h-.773a.732.732,0,1,0,0,1.465h.773a6.527,6.527,0,0,0,.336,1.465Zm16.943,2.93a5.127,5.127,0,1,1,5.127-5.127A5.133,5.133,0,0,1,18.408,23.535Zm0,0"/><path class="a" d="M365.662,304.93h-2.2v-2.2a.732.732,0,1,0-1.465,0v2.93a.732.732,0,0,0,.732.732h2.93a.732.732,0,0,0,0-1.465Zm0,0" transform="translate(-344.324 -287.254)"/><path class="a" d="M93.2,182H91.732a.732.732,0,0,0,0,1.465H93.2a.732.732,0,0,0,0-1.465Zm0,0" transform="translate(-86.557 -173.113)"/><path class="a" d="M93.2,242H91.732a.732.732,0,0,0,0,1.465H93.2a.732.732,0,0,0,0-1.465Zm0,0" transform="translate(-86.557 -230.184)"/><path class="a" d="M93.2,302H91.732a.732.732,0,0,0,0,1.465H93.2a.732.732,0,0,0,0-1.465Zm0,0" transform="translate(-86.557 -287.254)"/><path class="a" d="M212.732,183.465H214.2a.732.732,0,0,0,0-1.465h-1.465a.732.732,0,0,0,0,1.465Zm0,0" transform="translate(-201.648 -173.113)"/><path class="a" d="M212.732,243.465H214.2a.732.732,0,0,0,0-1.465h-1.465a.732.732,0,0,0,0,1.465Zm0,0" transform="translate(-201.648 -230.184)"/><path class="a" d="M93.2,362H91.732a.732.732,0,1,0,0,1.465H93.2a.732.732,0,1,0,0-1.465Zm0,0" transform="translate(-86.557 -344.324)"/><path class="a" d="M332.732,183.465H334.2a.732.732,0,0,0,0-1.465h-1.465a.732.732,0,0,0,0,1.465Zm0,0" transform="translate(-315.789 -173.113)"/></svg>