<svg xmlns="http://www.w3.org/2000/svg" xmlns:xlink="http://www.w3.org/1999/xlink" width="90" height="90" viewBox="0 0 90 90"><defs><style>.a{fill:#fff;}.b{fill:#d52d50;}.c{filter:url(#a);}</style><filter id="a" x="0" y="0" width="90" height="90" filterUnits="userSpaceOnUse"><feOffset dy="3" input="SourceAlpha"/><feGaussianBlur stdDeviation="3" result="b"/><feFlood flood-opacity="0.161"/><feComposite operator="in" in2="b"/><feComposite in="SourceGraphic"/></filter></defs><g transform="translate(-1292 -902)"><g class="c" transform="matrix(1, 0, 0, 1, 1292, 902)"><circle class="a" cx="36" cy="36" r="36" transform="translate(9 6)"/></g><g transform="translate(1322 929)"><path class="b" d="M120.773,258.922a.68.68,0,0,0-.681-.68h-2.376a.68.68,0,0,0-.681.68V261.3a.681.681,0,0,0,.681.681h2.376a.681.681,0,0,0,.681-.681v-2.376Z" transform="translate(-110.175 -242.371)"/><path class="b" d="M217.407,258.922a.68.68,0,0,0-.68-.68h-2.376a.68.68,0,0,0-.681.68V261.3a.681.681,0,0,0,.681.681h2.376a.681.681,0,0,0,.68-.681Z" transform="translate(-200.871 -242.371)"/><path class="b" d="M314.036,258.922a.68.68,0,0,0-.681-.68h-2.376a.68.68,0,0,0-.681.68V261.3a.681.681,0,0,0,.681.681h2.376a.681.681,0,0,0,.681-.681Z" transform="translate(-291.561 -242.371)"/><path class="b" d="M120.773,355.556a.68.68,0,0,0-.681-.681h-2.376a.68.68,0,0,0-.681.681v2.376a.681.681,0,0,0,.681.68h2.376a.681.681,0,0,0,.681-.68v-2.376Z" transform="translate(-110.175 -333.066)"/><path class="b" d="M217.407,355.556a.68.68,0,0,0-.68-.681h-2.376a.68.68,0,0,0-.681.681v2.376a.681.681,0,0,0,.681.68h2.376a.681.681,0,0,0,.68-.68Z" transform="translate(-200.871 -333.066)"/><path class="b" d="M314.036,355.556a.68.68,0,0,0-.68-.681h-2.376a.68.68,0,0,0-.681.681v2.376a.681.681,0,0,0,.681.68h2.376a.681.681,0,0,0,.68-.68v-2.376Z" transform="translate(-291.561 -333.066)"/><path class="b" d="M32.135,54.155v3.629a2.964,2.964,0,0,1-2.971,2.962H27.29A2.979,2.979,0,0,1,24.3,57.784V54.142H15.855v3.642a2.979,2.979,0,0,1-2.988,2.962H10.993a2.964,2.964,0,0,1-2.971-2.962V54.155a2.7,2.7,0,0,0-2.611,2.687V78.11a2.7,2.7,0,0,0,2.689,2.7H32.057a2.706,2.706,0,0,0,2.689-2.7V56.842A2.7,2.7,0,0,0,32.135,54.155Zm-.87,22.63A1.163,1.163,0,0,1,30.1,77.948H10a1.163,1.163,0,0,1-1.163-1.163V65.8A1.163,1.163,0,0,1,10,64.637H30.1A1.163,1.163,0,0,1,31.264,65.8V76.785Z" transform="translate(-5.411 -50.815)"/><path class="b" d="M80.569,7.986h1.854a1.018,1.018,0,0,0,1.019-1.018V1.019A1.019,1.019,0,0,0,82.422,0H80.569A1.019,1.019,0,0,0,79.55,1.019V6.968A1.018,1.018,0,0,0,80.569,7.986Z" transform="translate(-74.994)"/><path class="b" d="M345.477,7.986h1.854a1.018,1.018,0,0,0,1.018-1.018V1.019A1.018,1.018,0,0,0,347.33,0h-1.854a1.019,1.019,0,0,0-1.019,1.019V6.968A1.018,1.018,0,0,0,345.477,7.986Z" transform="translate(-323.621)"/></g></g></svg>