<svg xmlns="http://www.w3.org/2000/svg" width="29.08" height="29.08" viewBox="0 0 29.08 29.08"><defs><style>.a{opacity:0.5;}</style></defs><g class="a" transform="translate(-114.922 165.215) rotate(-135)"><g transform="translate(0 192.524)"><path d="M15,195.024a22.07,22.07,0,0,0-5.75.875v3.875A1.2,1.2,0,0,1,8.5,200.9a12.686,12.686,0,0,0-3.375,2.375,1.135,1.135,0,0,1-.875.375,1.135,1.135,0,0,1-.875-.375L.25,200.149a1.807,1.807,0,0,1-.25-.875,1.135,1.135,0,0,1,.375-.875,21.141,21.141,0,0,1,29.25,0,1.208,1.208,0,0,1,0,1.75L26.5,203.274a1.208,1.208,0,0,1-1.75,0,16.362,16.362,0,0,0-3.375-2.375,1.437,1.437,0,0,1-.75-1.125V195.9A20.374,20.374,0,0,0,15,195.024Z" transform="translate(0 -192.524)"/></g></g></svg>