<svg xmlns="http://www.w3.org/2000/svg" width="20" height="18" viewBox="0 0 20 18"><defs><style>.a{fill:#007ec3;}</style></defs><g transform="translate(0 -25.5)"><g transform="translate(0 25.5)"><circle class="a" cx="3.2" cy="3.2" r="3.2" transform="translate(6.8 6.8)"/><path class="a" d="M7,25.5l-1.8,2H2a2.006,2.006,0,0,0-2,2v12a2.006,2.006,0,0,0,2,2H18a2.006,2.006,0,0,0,2-2v-12a2.006,2.006,0,0,0-2-2H14.8l-1.8-2Zm3,15a5,5,0,1,1,5-5A4.951,4.951,0,0,1,10,40.5Z" transform="translate(0 -25.5)"/></g></g></svg>