<svg xmlns="http://www.w3.org/2000/svg" xmlns:xlink="http://www.w3.org/1999/xlink" width="90" height="90" viewBox="0 0 90 90"><defs><style>.a{fill:#fff;}.b{fill:#db2a4e;}.c{filter:url(#a);}</style><filter id="a" x="0" y="0" width="90" height="90" filterUnits="userSpaceOnUse"><feOffset dy="3" input="SourceAlpha"/><feGaussianBlur stdDeviation="3" result="b"/><feFlood flood-opacity="0.161"/><feComposite operator="in" in2="b"/><feComposite in="SourceGraphic"/></filter></defs><g transform="translate(-1292 -902)"><g class="c" transform="matrix(1, 0, 0, 1, 1292, 902)"><circle class="a" cx="36" cy="36" r="36" transform="translate(9 6)"/></g><g transform="translate(1262 929)"><g transform="translate(69.625)"><path class="b" d="M170.313,1.875h-2.036a2.813,2.813,0,0,0-5.3,0h-2.034a.938.938,0,0,0-.937.938v3.75a.938.938,0,0,0,.938.938h9.375a.938.938,0,0,0,.938-.937V2.813A.938.938,0,0,0,170.313,1.875Z" transform="translate(-160)"/></g><g transform="translate(64 3.75)"><path class="b" d="M84.625,64H82.75v2.813a2.816,2.816,0,0,1-2.812,2.813H70.563a2.816,2.816,0,0,1-2.812-2.812V64H65.875A1.878,1.878,0,0,0,64,65.875v22.5a1.854,1.854,0,0,0,1.875,1.875h18.75A1.854,1.854,0,0,0,86.5,88.375v-22.5A1.854,1.854,0,0,0,84.625,64ZM74.976,80.6l-3.75,3.75a.942.942,0,0,1-1.327,0l-1.875-1.875a.937.937,0,0,1,1.326-1.326l1.213,1.211,3.086-3.086A.938.938,0,0,1,74.976,80.6Zm0-7.5-3.75,3.75a.942.942,0,0,1-1.327,0l-1.875-1.875a.937.937,0,0,1,1.326-1.326l1.213,1.211,3.086-3.086A.938.938,0,0,1,74.976,73.1Zm6.836,9.649h-3.75a.938.938,0,0,1,0-1.875h3.75a.938.938,0,0,1,0,1.875Zm0-7.5h-3.75a.938.938,0,0,1,0-1.875h3.75a.938.938,0,0,1,0,1.875Z" transform="translate(-64 -64)"/></g></g></g></svg>