<svg xmlns="http://www.w3.org/2000/svg" width="25" height="25" viewBox="0 0 25 25"><defs><style>.a{opacity:0.5;}</style></defs><g class="a"><g transform="translate(0 0)"><path d="M21.339,3.661A12.5,12.5,0,0,0,3.661,21.339,12.5,12.5,0,0,0,21.339,3.661ZM12.5,22.546A10.058,10.058,0,0,1,2.454,12.5c0-.009,0-.018,0-.027s0,0,0-.007,0-.008,0-.011a10.057,10.057,0,0,1,9.909-10l.034,0h.1a10.046,10.046,0,1,1,0,20.093Z" transform="translate(0 0)"/></g><g transform="translate(3.962 3.956)"><path d="M97.311,90.176a.74.74,0,1,1,0-1.479H98.2a8.582,8.582,0,0,0-7.885-7.668v.776a.74.74,0,1,1-1.479,0v-.758a8.582,8.582,0,0,0-7.69,7.752h.8a.74.74,0,1,1,0,1.479h-.8a8.581,8.581,0,0,0,7.8,7.829V97.17a.74.74,0,1,1,1.479,0v.938a8.58,8.58,0,0,0,7.806-7.931Zm-4.637-2.552L90.2,90.1a.74.74,0,0,1-1.046,0l-4.3-4.3A.74.74,0,0,1,85.9,84.748l3.778,3.778,1.948-1.948a.74.74,0,1,1,1.046,1.046Z" transform="translate(-81.142 -81.029)"/></g></g></svg>