<svg xmlns="http://www.w3.org/2000/svg" width="20.066" height="26" viewBox="0 0 20.066 26"><defs><style>.a{fill:none;stroke:#ff3b3b;}</style></defs><g transform="translate(0.5 0.5)"><path class="a" d="M74.182,2.273A1.281,1.281,0,0,1,75.509.983h5.455a1.281,1.281,0,0,1,1.327,1.29V3.686h.983V2.273A2.264,2.264,0,0,0,80.963,0H75.509A2.264,2.264,0,0,0,73.2,2.273V3.686h.983Zm0,0" transform="translate(-68.703)"/><path class="a" d="M30.189,141.383H41.811a2.093,2.093,0,0,0,1.99-2.211V124H28.2v15.172a2.093,2.093,0,0,0,1.99,2.211Zm8.943-15.037a.491.491,0,0,1,.983,0v11.609a.491.491,0,0,1-.983,0Zm-3.624,0a.491.491,0,0,1,.983,0v11.609a.491.491,0,0,1-.983,0Zm-3.624,0a.491.491,0,0,1,.983,0v11.609a.491.491,0,0,1-.983,0Zm0,0" transform="translate(-26.467 -116.383)"/><path class="a" d="M1.229,70.457H17.838a1.229,1.229,0,1,0,0-2.457H1.229a1.229,1.229,0,1,0,0,2.457Zm0,0" transform="translate(0 -63.823)"/></g></svg>