<svg xmlns="http://www.w3.org/2000/svg" width="30" height="32" viewBox="0 0 30 32"><defs><style>.a{fill:#007ec3;}</style></defs><g transform="translate(-16)"><g transform="translate(23)"><path class="a" d="M143.908,14.586A1,1,0,0,0,143,14h-4V1a1,1,0,0,0-1-1h-4a1,1,0,0,0-1,1V14h-4a1,1,0,0,0-.752,1.658l7,8a1,1,0,0,0,1.5,0l7-8A1,1,0,0,0,143.908,14.586Z" transform="translate(-127.998)"/></g><g transform="translate(16 22)"><g transform="translate(0)"><path class="a" d="M42,352v6H20v-6H16v8a2,2,0,0,0,2,2H44a2,2,0,0,0,2-2v-8Z" transform="translate(-16 -352)"/></g></g></g></svg>