<svg xmlns="http://www.w3.org/2000/svg" width="22.5" height="24" viewBox="0 0 22.5 24"><defs><style>.a{fill:#d52d50;}</style></defs><g transform="translate(-16)"><g transform="translate(21.25)"><path class="a" d="M139.931,10.939a.748.748,0,0,0-.682-.439h-3V.75A.75.75,0,0,0,135.5,0h-3a.75.75,0,0,0-.75.75V10.5h-3a.75.75,0,0,0-.564,1.243l5.25,6a.748.748,0,0,0,1.128,0l5.25-6A.748.748,0,0,0,139.931,10.939Z" transform="translate(-127.998)"/></g><g transform="translate(16 16.5)"><g transform="translate(0)"><path class="a" d="M35.5,352v4.5H19V352H16v6a1.5,1.5,0,0,0,1.5,1.5H37a1.5,1.5,0,0,0,1.5-1.5v-6Z" transform="translate(-16 -352)"/></g></g></g></svg>