<svg xmlns="http://www.w3.org/2000/svg" width="19.74" height="25.2" viewBox="0 0 19.74 25.2"><defs><style>.a{fill:#007ec3;stroke:#007ec3;stroke-width:0.2px;}</style></defs><g transform="translate(-55.807 0.1)"><path class="a" d="M75.34,5.771,73.47,3.9V1.111A1.112,1.112,0,0,0,72.359,0H57a1.1,1.1,0,0,0-1.1,1.1v18.41A1.1,1.1,0,0,0,57,20.6h.621v.612a1.1,1.1,0,0,0,1.1,1.1H61.1a.366.366,0,0,0,0-.732H58.722a.365.365,0,0,1-.365-.365V6.492a.366.366,0,1,0-.732,0v13.38H57a.365.365,0,0,1-.365-.365V1.1A.365.365,0,0,1,57,.732H72.359a.379.379,0,0,1,.379.379V3.168L71.385,1.816a.366.366,0,0,0-.259-.107h-12.4a1.1,1.1,0,0,0-1.1,1.1V4.787a.366.366,0,1,0,.732,0V2.806a.365.365,0,0,1,.365-.365H70.76V6.029a.366.366,0,0,0,.366.366h3.589v14.82a.365.365,0,0,1-.365.365H72a.366.366,0,0,0,0,.732H74.35a1.1,1.1,0,0,0,1.1-1.1V6.03a.366.366,0,0,0-.107-.259Zm-3.848-.108v-2.7l2.7,2.7Z"/><path class="a" d="M185.7,175.456h-8.761a.366.366,0,0,0,0,.732H185.7a.366.366,0,0,0,0-.732Z" transform="translate(-114.769 -166.889)"/><path class="a" d="M185.7,219.688h-8.761a.366.366,0,0,0,0,.732H185.7a.366.366,0,0,0,0-.732Z" transform="translate(-114.769 -208.961)"/><path class="a" d="M322.64,264.8h-1.731a.366.366,0,0,0,0,.732h1.731a.366.366,0,0,0,0-.732Z" transform="translate(-251.714 -251.872)"/><path class="a" d="M182.241,265.534a.366.366,0,1,0,0-.732h-5.307a.366.366,0,0,0,0,.732Z" transform="translate(-114.769 -251.872)"/><path class="a" d="M236.792,367.929l-.976.976v-3.54a.366.366,0,0,0-.732,0v3.54l-.976-.976a.366.366,0,0,0-.518.518l1.6,1.6a.366.366,0,0,0,.518,0l1.6-1.6a.366.366,0,0,0-.518-.518Z" transform="translate(-168.905 -347.177)"/><path class="a" d="M184.18,323.61a4.6,4.6,0,1,0,4.6,4.6A4.6,4.6,0,0,0,184.18,323.61Zm0,8.466a3.867,3.867,0,1,1,3.867-3.867A3.871,3.871,0,0,1,184.18,332.076Z" transform="translate(-117.634 -307.809)"/></g></svg>