<svg xmlns="http://www.w3.org/2000/svg" width="144.139" height="165.086" viewBox="0 0 144.139 165.086"><defs><style>.a{fill:#fc1a40;}.b{fill:#c60034;}.c{fill:#fe9923;}.d{fill:#fe8821;}.e{fill:#ff3e75;}.f{fill:#fcbf29;}</style></defs><path class="a" d="M38.627,247l15.67-5.707a4.524,4.524,0,0,1,1.644-.29H156.348a4.789,4.789,0,0,1,4.837,4.837v68.034a14.49,14.49,0,0,1-14.51,14.51H49.944a14.49,14.49,0,0,1-14.51-14.51V251.542A4.8,4.8,0,0,1,38.627,247Z" transform="translate(-17.997 -163.293)"/><path class="b" d="M230.435,251.542v62.327a14.49,14.49,0,0,0,14.509,14.51H293.31V241H250.942a4.522,4.522,0,0,0-1.644.29L233.627,247A4.8,4.8,0,0,0,230.435,251.542Z" transform="translate(-212.997 -163.293)"/><path class="c" d="M158.45,31.53A19.58,19.58,0,0,1,171.7,17.5a19.272,19.272,0,0,1,18.766,4.062l11.221,9.867,2.224-14.8a19.6,19.6,0,0,1,11.9-15.187A18.365,18.365,0,0,1,219.583.383a19.236,19.236,0,0,1,15.284,3.386,19.529,19.529,0,0,1-4.837,34.242l-10.447,3.772-12.865,4.74h-.1l-22.345,8.222a20.754,20.754,0,0,1-6.771,1.161A19.71,19.71,0,0,1,158.45,31.53Z" transform="translate(-139.271 0)"/><path class="d" d="M237,51.681a19.56,19.56,0,0,0,13.059,5.03,20.757,20.757,0,0,0,6.771-1.161l22.345-8.222h.1l12.865-4.74V1.187a18.387,18.387,0,0,0-3.772,1.064,19.6,19.6,0,0,0-11.9,15.187l-2.224,14.8-11.221-9.867a19.272,19.272,0,0,0-18.766-4.062A19.6,19.6,0,0,0,237,51.681Z" transform="translate(-211.826 -0.804)"/><path class="e" d="M33.379,109.642l6.578,18.185a4.9,4.9,0,0,0,4.547,3.1,4.522,4.522,0,0,0,1.644-.29l50.01-18.185L100.7,97.455l12.091,2.708,10.64,2.418L173.444,84.4a4.923,4.923,0,0,0,2.9-6.191L169.672,60.02A14.419,14.419,0,0,0,151.1,51.314L112.794,65.244l-2.612.967S99.736,85.17,99.445,85.17c-.194,0-4.353-2.322-8.416-4.547S82.9,76.077,82.9,76.077l-40.82,14.9a14.663,14.663,0,0,0-8.222,7.545A14.317,14.317,0,0,0,33.379,109.642Z" transform="translate(-32.482 -34.161)"/><path class="a" d="M231.332,140.8l6.578,18.185a4.9,4.9,0,0,0,4.547,3.1,4.522,4.522,0,0,0,1.644-.29L294.11,143.6l4.546-14.993,12.091,2.708V96.4l-2.612.967s-10.447,18.959-10.737,18.959c-.194,0-4.353-2.322-8.416-4.547s-8.125-4.546-8.125-4.546l-40.82,14.9a14.663,14.663,0,0,0-8.222,7.545A14.317,14.317,0,0,0,231.332,140.8Z" transform="translate(-230.435 -65.317)"/><g transform="translate(50.423 32.049)"><path class="f" d="M214.454,241v87.38H185.435V241Z" transform="translate(-170.055 -195.342)"/><path class="f" d="M224.713,99.4l2.612,7.158,10.64,29.213-10.64,3.87-12.091,4.353-4.546,1.644-13.253-36.371Z" transform="translate(-197.435 -99.398)"/></g><g transform="translate(50.423 32.049)"><rect class="c" width="14.51" height="87.38" transform="translate(15.379 45.657)"/><path class="c" d="M230.435,109.265l13.252,36.371,4.546-1.644,12.091-4.353V106.556L257.713,99.4Z" transform="translate(-230.435 -99.398)"/></g></svg>