<svg xmlns="http://www.w3.org/2000/svg" width="30" height="30" viewBox="0 0 30 30"><defs><style>.a{fill-rule:evenodd;opacity:0.5;}</style></defs><path class="a" d="M15,0A15,15,0,1,0,30,15,15.044,15.044,0,0,0,15,0ZM25.35,9H21a23.708,23.708,0,0,0-2.1-5.4A12.073,12.073,0,0,1,25.35,9ZM15,3a20.141,20.141,0,0,1,2.85,6h-5.7A22.055,22.055,0,0,1,15,3ZM3.45,18A9.672,9.672,0,0,1,3,15a9.672,9.672,0,0,1,.45-3h5.1a20.1,20.1,0,0,0-.15,3c0,1.05.15,1.95.15,3Zm1.2,3H9a23.708,23.708,0,0,0,2.1,5.4A12.073,12.073,0,0,1,4.65,21ZM9,9H4.65A12.642,12.642,0,0,1,11.1,3.6,23.708,23.708,0,0,0,9,9Zm6,18a20.141,20.141,0,0,1-2.85-6h5.7A22.055,22.055,0,0,1,15,27Zm3.45-9h-6.9a20.328,20.328,0,0,1-.3-3,20.329,20.329,0,0,1,.3-3H18.6a20.329,20.329,0,0,1,.3,3A20.706,20.706,0,0,1,18.45,18Zm.45,8.4A21.282,21.282,0,0,0,21,21h4.35A12.073,12.073,0,0,1,18.9,26.4ZM21.6,18a20.1,20.1,0,0,0,.15-3c0-1.05-.15-1.95-.15-3h5.1a9.671,9.671,0,0,1,.45,3,9.671,9.671,0,0,1-.45,3Z"/></svg>