<svg xmlns="http://www.w3.org/2000/svg" width="20" height="17.5" viewBox="0 0 20 17.5"><defs><style>.a{fill:#0068e9;}</style></defs><g transform="translate(1 -38.25)"><g transform="translate(-1 38.25)"><path class="a" d="M10.839,50.9a.625.625,0,0,0,.884.884l4.312-4.312a.721.721,0,0,0,0-.946l-4.312-4.312a.625.625,0,0,0-.884.884l3.277,3.277H.625a.625.625,0,0,0,0,1.25H14.116ZM17.5,38.25H5a2.5,2.5,0,0,0-2.5,2.5v2.5H3.75v-2.5A1.25,1.25,0,0,1,5,39.5H17.5a1.25,1.25,0,0,1,1.25,1.25v12.5A1.25,1.25,0,0,1,17.5,54.5H5a1.25,1.25,0,0,1-1.25-1.25v-2.5H2.5v2.5A2.5,2.5,0,0,0,5,55.75H17.5a2.5,2.5,0,0,0,2.5-2.5V40.75A2.5,2.5,0,0,0,17.5,38.25Z" transform="translate(0 -38.25)"/></g></g></svg>