<svg xmlns="http://www.w3.org/2000/svg" width="30" height="22.5" viewBox="0 0 30 22.5"><defs><style>.a{fill-rule:evenodd;opacity:0.5;}</style></defs><path class="a" d="M.626,1.826C4.744,5.313,11.968,11.447,14.092,13.36a1.255,1.255,0,0,0,1.815,0c2.125-1.915,9.35-8.05,13.467-11.537a.625.625,0,0,0,.088-.862A2.482,2.482,0,0,0,27.5,0H2.5A2.482,2.482,0,0,0,.538.963a.624.624,0,0,0,.088.862Zm29.011,1.89a.622.622,0,0,0-.667.09C24.4,7.676,18.577,12.638,16.744,14.29a2.531,2.531,0,0,1-3.489,0C11.3,12.528,4.756,6.965,1.029,3.805A.625.625,0,0,0,0,4.282V20a2.5,2.5,0,0,0,2.5,2.5h25A2.5,2.5,0,0,0,30,20V4.282a.625.625,0,0,0-.363-.567Z"/></svg>