<svg xmlns="http://www.w3.org/2000/svg" width="18.75" height="25" viewBox="0 0 18.75 25"><defs><style>.a{fill:#35c28d;}</style></defs><g transform="translate(-64)"><g transform="translate(64)"><path class="a" d="M214.185,281.092l-.329,2.955a.521.521,0,0,0,.518.578h2.083a.521.521,0,0,0,.518-.578l-.329-2.955a2.061,2.061,0,0,0,.852-1.675,2.083,2.083,0,0,0-4.167,0A2.061,2.061,0,0,0,214.185,281.092Zm1.231-2.717a1.038,1.038,0,0,1,.45,1.975.521.521,0,0,0-.291.526l.3,2.706h-.92l.3-2.706a.521.521,0,0,0-.291-.526,1.038,1.038,0,0,1,.45-1.975Z" transform="translate(-206.041 -263.791)"/><path class="a" d="M82.229,9.375H80.667V7.292a7.292,7.292,0,1,0-14.583,0V9.375H64.521A.521.521,0,0,0,64,9.9V22.917A2.085,2.085,0,0,0,66.083,25H80.667a2.085,2.085,0,0,0,2.083-2.083V9.9A.521.521,0,0,0,82.229,9.375Zm-15.1-2.083a6.25,6.25,0,0,1,12.5,0V9.375H78.583V7.292a5.208,5.208,0,0,0-10.417,0V9.375H67.125Zm10.417,0V9.375H69.208V7.292a4.167,4.167,0,1,1,8.333,0Zm4.167,15.625a1.043,1.043,0,0,1-1.042,1.042H66.083a1.043,1.043,0,0,1-1.042-1.042v-12.5H81.708Z" transform="translate(-64)"/></g></g></svg>