<svg xmlns="http://www.w3.org/2000/svg" width="25" height="23.926" viewBox="0 0 25 23.926"><defs><style>.a{fill:#007ec3;}</style></defs><g transform="translate(0)"><path class="a" d="M23.657,1.709H15.51l-.152-.665A1.336,1.336,0,0,0,14.049,0H1.343A1.344,1.344,0,0,0,0,1.343v17.09a1.344,1.344,0,0,0,1.343,1.343H11.527a1.818,1.818,0,0,0,1.136,1.389l.59.231a1.349,1.349,0,0,0,.664.772v.611a1.149,1.149,0,0,0,1.147,1.147h3.809a1.149,1.149,0,0,0,1.147-1.147v-.611a1.344,1.344,0,0,0,.732-1.2V18.311h2.173a.611.611,0,0,0,.61-.61V4.15h.732V18.433a.611.611,0,0,1-.61.61H22.095a.366.366,0,0,0,0,.732h1.563A1.344,1.344,0,0,0,25,18.433V3.052a1.344,1.344,0,0,0-1.343-1.343Zm-9.013-.5.115.5H11.6l-.152-.665a1.358,1.358,0,0,0-.113-.311h2.71a.607.607,0,0,1,.595.474Zm-4.5-.474a.608.608,0,0,1,.6.474l.115.5H7.3l-.152-.665A1.358,1.358,0,0,0,7.034.732Zm-8.8,0H5.838a.608.608,0,0,1,.6.474l.217.95a.366.366,0,0,0,.357.285h16.65a.611.611,0,0,1,.61.61v.366H.733V1.343a.611.611,0,0,1,.61-.61ZM12.232,19.459V17.424a.477.477,0,0,1,.474-.476.475.475,0,0,1,.478.476v3.158l-.254-.1a1.092,1.092,0,0,1-.7-1.023Zm8.569-7.74v2.2H18.7v-2.2Zm-2.829,2.2H15.625V13.6a1.261,1.261,0,0,0-.377-.894,1.2,1.2,0,0,0-.867-.349,1.227,1.227,0,0,0-1.2,1.221v.342H11.817v-2.2h6.155Zm.9,9.277H15.064a.415.415,0,0,1-.415-.415v-.464h4.639v.464A.415.415,0,0,1,18.872,23.193Zm1.147-2.222a.611.611,0,0,1-.61.61H14.526a.611.611,0,0,1-.61-.61v-7.4a.491.491,0,0,1,.479-.488H14.4a.473.473,0,0,1,.332.14.523.523,0,0,1,.157.371v4.519a.366.366,0,0,0,.732,0v-.879a.488.488,0,0,1,.977,0v.879a.366.366,0,1,0,.732,0v-.879a.488.488,0,1,1,.977,0v.879a.366.366,0,0,0,.732,0v-.879a.491.491,0,0,1,.479-.488.473.473,0,0,1,.341.14.524.524,0,0,1,.157.371v3.713ZM22.8,17.578H20.752v-.319a1.261,1.261,0,0,0-.377-.894,1.2,1.2,0,0,0-.867-.349,1.216,1.216,0,0,0-.83.351,1.219,1.219,0,0,0-1.71,0,1.219,1.219,0,0,0-1.343-.248V14.648h5.3a.611.611,0,0,0,.61-.61V11.6a.611.611,0,0,0-.61-.61H11.694a.611.611,0,0,0-.61.61v2.441a.611.611,0,0,0,.61.61h1.489v1.664a1.207,1.207,0,0,0-.476-.1H12.7a1.211,1.211,0,0,0-1.2,1.208v.154H2.2V5.493a.366.366,0,1,0-.732,0V17.7a.611.611,0,0,0,.61.61H11.5v.732H1.343a.611.611,0,0,1-.61-.61V4.15H22.8Zm0,0"/><path class="a" d="M227.61,138.662h9.229a.611.611,0,0,0,.61-.61V135.61a.611.611,0,0,0-.61-.61H227.61a.611.611,0,0,0-.61.61v2.441A.611.611,0,0,0,227.61,138.662Zm9.106-.732h-2.1v-2.2h2.1Zm-8.984-2.2h6.155v2.2h-6.155Zm0,0" transform="translate(-215.916 -128.408)"/><path class="a" d="M70.866,135.732h5.469a.366.366,0,1,0,0-.732H70.866a.366.366,0,0,0,0,.732Zm0,0" transform="translate(-67.057 -128.408)"/><path class="a" d="M70.866,165.732h5.469a.366.366,0,1,0,0-.732H70.866a.366.366,0,0,0,0,.732Zm0,0" transform="translate(-67.057 -156.943)"/><path class="a" d="M70.866,195.732h3.809a.366.366,0,1,0,0-.732H70.866a.366.366,0,1,0,0,.732Zm0,0" transform="translate(-67.057 -185.479)"/><path class="a" d="M70.866,225.732h5.469a.366.366,0,1,0,0-.732H70.866a.366.366,0,0,0,0,.732Zm0,0" transform="translate(-67.057 -214.014)"/><path class="a" d="M70.866,255.732h3.809a.366.366,0,1,0,0-.732H70.866a.366.366,0,1,0,0,.732Zm0,0" transform="translate(-67.057 -242.549)"/><path class="a" d="M70.866,284.732H73.21a.366.366,0,1,0,0-.732H70.866a.366.366,0,0,0,0,.732Zm0,0" transform="translate(-67.057 -270.133)"/><path class="a" d="M41.866,35.732h2.49a.366.366,0,0,0,0-.732h-2.49a.366.366,0,1,0,0,.732Zm0,0" transform="translate(-39.473 -33.291)"/></g></svg>