<svg xmlns="http://www.w3.org/2000/svg" width="27.906" height="30" viewBox="0 0 27.906 30"><defs><style>.a{opacity:0.5;}</style></defs><g class="a" transform="translate(-17.867)"><g transform="translate(18.309)"><path d="M48.5,0H29.358l-3.94,6.166H52.439Z" transform="translate(-25.418)"/></g><g transform="translate(17.867 8.122)"><path d="M17.867,138.617v2.177a4.22,4.22,0,0,0,7.466,2.7,4.217,4.217,0,0,0,6.487,0,4.217,4.217,0,0,0,6.487,0,4.22,4.22,0,0,0,7.466-2.7v-2.177Z" transform="translate(-17.867 -138.617)"/></g><g transform="translate(20.023 15.557)"><path d="M76.187,266.433a6.158,6.158,0,0,1-3.244-.92,6.177,6.177,0,0,1-6.487,0,6.177,6.177,0,0,1-6.487,0,6.178,6.178,0,0,1-5.31.564v13.878h12.3V268.869h7.69v11.087h3.733V266.029A6.15,6.15,0,0,1,76.187,266.433Zm-12.579,7.653H58.39v-5.217h5.217Z" transform="translate(-54.658 -265.513)"/></g></g></svg>