<svg xmlns="http://www.w3.org/2000/svg" width="25" height="24.138" viewBox="0 0 25 24.138"><defs><style>.a{fill:#7e7e7e;}</style></defs><g transform="translate(-16.003 -32)"><path class="a" d="M315.655,177.376v.788a6.016,6.016,0,0,1-.247,1.711,1.293,1.293,0,0,0,.247-2.5Z" transform="translate(-283.273 -137.543)"/><path class="a" d="M80.873,177.376a1.293,1.293,0,0,0,.247,2.5,6.016,6.016,0,0,1-.247-1.711Z" transform="translate(-60.56 -137.543)"/><path class="a" d="M113.294,168H112v.862h.905A2.147,2.147,0,0,1,113.294,168Z" transform="translate(-90.824 -128.672)"/><path class="a" d="M88.19,35.017a.431.431,0,0,1,.431-.431,4.315,4.315,0,0,1,4.31,4.31v.043a2.147,2.147,0,0,1,.862.389V38.9A6.9,6.9,0,0,0,80,38.9v.432a2.147,2.147,0,0,1,.862-.389V38.9a.431.431,0,0,1,.431-.431h3.879A3.258,3.258,0,0,0,88.19,35.017Z" transform="translate(-60.549)"/><path class="a" d="M144,169.293A1.293,1.293,0,1,0,145.293,168,1.293,1.293,0,0,0,144,169.293Zm1.724,0a.431.431,0,1,1-.431-.431A.431.431,0,0,1,145.724,169.293Z" transform="translate(-121.1 -128.672)"/><path class="a" d="M96,448.431v.862a.432.432,0,0,0,.431.431h1.293V448H96.431A.432.432,0,0,0,96,448.431Z" transform="translate(-75.686 -393.586)"/><path class="a" d="M199.766,99.458a2.159,2.159,0,0,1,2.112,1.724h.905V99.889a3.453,3.453,0,0,0-3.039-3.423,4.236,4.236,0,0,1-2.725,3.666,2.147,2.147,0,0,1,.592,1.481A2.158,2.158,0,0,1,199.766,99.458Z" transform="translate(-171.263 -60.993)"/><path class="a" d="M449.293,448H448v1.724h1.293a.431.431,0,0,0,.431-.431v-.862A.432.432,0,0,0,449.293,448Z" transform="translate(-408.721 -393.586)"/><path class="a" d="M373.172,352H368v6.9h3.448v-2.155a.431.431,0,0,1,.431-.431h1.293Zm-3.448.862h1.724a.431.431,0,0,1,0,.862h-1.724a.431.431,0,0,1,0-.862Zm2.155,2.586h-2.532a.431.431,0,0,1,0-.862h2.532a.431.431,0,0,1,0,.862Z" transform="translate(-333.031 -302.759)"/><path class="a" d="M122.645,192.431h-.887A2.155,2.155,0,0,1,117.49,192a2.155,2.155,0,0,1-4.267.431h-.887a5.172,5.172,0,0,0,10.309,0Zm-3.622,2.945a2.593,2.593,0,0,1-3.064,0,.431.431,0,1,1,.478-.717,1.724,1.724,0,0,0,2.108,0,.431.431,0,1,1,.478.717Z" transform="translate(-91.142 -151.379)"/><path class="a" d="M160,305.293,161.724,304H160Z" transform="translate(-136.238 -257.345)"/><path class="a" d="M275.017,304H272v1.724h4.31v-.431A1.3,1.3,0,0,0,275.017,304Z" transform="translate(-242.204 -257.345)"/><path class="a" d="M224,169.293A1.293,1.293,0,1,0,225.293,168,1.293,1.293,0,0,0,224,169.293Zm1.724,0a.431.431,0,1,1-.431-.431A.431.431,0,0,1,225.724,169.293Z" transform="translate(-196.79 -128.672)"/><path class="a" d="M256,352h5.172v6.9H256Z" transform="translate(-227.066 -302.759)"/><path class="a" d="M216,326.729h1.293V319.4a.43.43,0,0,1,.145-.322L216,318Z" transform="translate(-189.221 -270.59)"/><path class="a" d="M225.724,304H224l1.724,1.293Z" transform="translate(-196.79 -257.345)"/><path class="a" d="M23.589,276.225a.431.431,0,0,1-.69-.345v-2.155H19.882a1.3,1.3,0,0,0-1.293,1.293v.76l-1.77-3.539h0a.431.431,0,1,0-.77.385h0l2.541,5.082v5.5h.936a1.287,1.287,0,0,1-.074-.431v-.862a1.294,1.294,0,0,1,1.293-1.293h1.724a.431.431,0,0,1,.431.431v2.155h3.017V274.48Z" transform="translate(0 -227.07)"/></g></svg>