<svg xmlns="http://www.w3.org/2000/svg" width="17.542" height="17.542" viewBox="0 0 17.542 17.542"><defs><style>.a{fill:#0068e9;}</style></defs><path class="a" d="M8.771,2.083a2.248,2.248,0,0,1,2.3,2.3,2.248,2.248,0,0,1-2.3,2.3,2.248,2.248,0,0,1-2.3-2.3,2.248,2.248,0,0,1,2.3-2.3m0,9.867c3.289,0,6.688,1.645,6.688,2.3v1.206H2.083V14.253c0-.658,3.4-2.3,6.688-2.3M8.771,0a4.385,4.385,0,1,0,4.385,4.385A4.4,4.4,0,0,0,8.771,0Zm0,9.867C5.811,9.867,0,11.293,0,14.253v3.289H17.542V14.253c0-2.96-5.811-4.385-8.771-4.385Z"/></svg>